<?xml version="1.0" encoding="utf-8"?>
<!-- Generator: Adobe Illustrator 24.3.0, SVG Export Plug-In . SVG Version: 6.00 Build 0)  -->
<svg version="1.1" id="Layer_1" xmlns="http://www.w3.org/2000/svg" xmlns:xlink="http://www.w3.org/1999/xlink" x="0px" y="0px"
	 viewBox="0 0 365.24 130.73" style="enable-background:new 0 0 365.24 130.73;" xml:space="preserve">
<style type="text/css">
	.st0{fill:#FFFFFF;}
</style>
<path class="st0" d="M43.62,40.77l-0.58-3.04l18.26-3.49l0.58,3.04L43.62,40.77z M74.63,82.84l3.49,18.26l3.04-0.58l-3.49-18.26
	L74.63,82.84z M27.11,31.15L8.38,25.11l18.74-6.04v-4.81L0.52,5.72v4.71l19.62,6.19L0.52,22.71v4.81l19.62,6.09L0.52,39.8v4.71
	l26.59-8.55V31.15z M88.72,15.96L75.49,2.9l-2.18,2.2l13.23,13.06L88.72,15.96z M75.7,20.03l-17.2-7.06l-1.18,2.87l17.2,7.06
	L75.7,20.03z M81.98,17.37L66.45,7.15l-1.7,2.59l15.53,10.22L81.98,17.37z M70.06,23.8l-18.23-3.67l-0.61,3.04l18.22,3.67
	L70.06,23.8z M19.15,46.97c-1.77,0-3.18,0.5-4.23,1.49c-1.04,0.99-1.81,2.19-2.3,3.6c-0.49,1.41-0.96,3.21-1.41,5.4
	c-0.45,2.3-0.93,4-1.43,5.11c-0.5,1.11-1.3,1.67-2.37,1.67c-2.33,0-3.5-1.95-3.5-5.84c0-3.93,1.27-5.9,3.81-5.9h0.47v-4.85
	l-0.94-0.05c-1.36,0-2.59,0.43-3.7,1.28c-1.11,0.85-1.98,2.05-2.61,3.6C0.31,54.02,0,55.78,0,57.77v0.47c0,3.37,0.71,6.04,2.11,7.98
	c1.41,1.95,3.35,2.92,5.82,2.92c1.81,0,3.23-0.47,4.28-1.41c1.04-0.94,1.78-2.07,2.22-3.39c0.44-1.32,0.86-3.06,1.28-5.22
	c0.28-1.67,0.56-2.97,0.84-3.91c0.28-0.94,0.7-1.73,1.25-2.37c0.56-0.64,1.32-0.97,2.29-0.97c1.15,0,2.05,0.58,2.71,1.75
	c0.66,1.17,0.99,2.48,0.99,3.94c0,4.97-1.48,7.46-4.43,7.46h-0.52v4.85h1.15c1.46,0.04,2.77-0.39,3.94-1.28
	c1.17-0.89,2.09-2.15,2.77-3.78c0.68-1.63,1.02-3.55,1.02-5.74v-0.78c0-3.65-0.71-6.45-2.14-8.4C24.14,47.94,22,46.97,19.15,46.97z
	 M65.2,28.53H46.61l0,3.1l18.59,0L65.2,28.53z M59.68,43.54l-1.17-2.87l-17.21,7.04l1.17,2.87L59.68,43.54z M63.07,50.53l-2.19,2.19
	l6.57,6.57l2.19-2.19L63.07,50.53z M60.72,92.05l3.04,0.61l3.65-18.23l-3.04-0.61L60.72,92.05z M68.99,97.4l3.1,0l0-18.59l-3.1,0
	V97.4z M60.71,68.07l-7.05,17.2l2.87,1.18l7.05-17.2L60.71,68.07z M57.02,47.78L41.57,58.13l1.72,2.57l15.44-10.35L57.02,47.78z
	 M56.93,54.89L43.87,68.12l2.2,2.18l13.06-13.23L56.93,54.89z M58.19,61.7L47.97,77.23l2.59,1.7l10.22-15.53L58.19,61.7z
	 M2.35,77.25C0.78,78.92,0,81.21,0,84.14c0,3.72,1.16,6.5,3.91,8.92l-3.39,0.68v3.55h26.66v-4.9H11.32c-1.36,0-2.6-0.33-3.73-0.99
	c-1.13-0.66-2.03-1.53-2.69-2.61c-0.66-1.08-0.99-2.24-0.99-3.5c0-3.76,2.07-5.63,6.21-5.63h17.06v-4.9H9.24
	C6.21,74.74,3.91,75.58,2.35,77.25z M126.74,40.23l10.32-15.46l-2.58-1.72l-10.32,15.46L126.74,40.23z M123.97,34l7.15-17.16
	l-2.86-1.19l-7.15,17.16L123.97,34z M123.82,10.21l-3.03-0.63l-3.74,18.21l3.03,0.62L123.82,10.21z M118.31,46.14l13.14,13.15
	l2.19-2.19l-13.15-13.15L118.31,46.14z M128.27,46.95l13.15-13.14l-2.19-2.19l-13.15,13.15L128.27,46.95z M237.36,20.88
	c0.44-3.94-0.79-7.67-3.11-10.5c-2.89,2.25-4.91,5.62-5.35,9.56c-0.44,3.94,0.79,7.69,3.11,10.54
	C234.91,28.2,236.93,24.82,237.36,20.88z M95.78,15.88L85.41,0.44l-2.57,1.73L93.21,17.6L95.78,15.88z M222.2,21.72
	c1.85-3.19,2.47-7.08,1.42-10.9c-1.05-3.82-3.58-6.83-6.78-8.6c-1.85,3.16-2.48,7.04-1.43,10.86
	C216.46,16.9,218.98,19.92,222.2,21.72z M115.28,5.05l-3.1,0v18.59l3.1,0L115.28,5.05z M237.88,42.25c3.53-1.04,6.66-3.44,8.53-6.93
	c1.87-3.5,2.11-7.42,1-10.91c-3.52,1.02-6.64,3.4-8.51,6.9C237.03,34.8,236.78,38.73,237.88,42.25z M109.44,19.86l-3.46-18.27
	l-3.04,0.58l3.46,18.27L109.44,19.86z M122.32,59.29l2.19-2.19l-13.15-13.15l-2.19,2.19L122.32,59.29z M106.22,57.1L93.07,43.95
	l-2.19,2.19l13.14,13.15L106.22,57.1z M102.92,17.2L95.87,0L93,1.17l7.05,17.2L102.92,17.2z M115.36,57.1l-13.15-13.15l-2.19,2.19
	l13.14,13.15L115.36,57.1z M87.93,57.1L74.79,43.95l-2.19,2.19l13.14,13.15L87.93,57.1z M63.45,46.14l13.14,13.15l2.19-2.19
	L65.64,43.95L63.45,46.14z M97.08,57.1L83.93,43.95l-2.19,2.19l13.14,13.15L97.08,57.1z M174.65,85.66
	c-0.02,3.96,1.59,7.55,4.19,10.12c2.64-2.54,4.3-6.1,4.32-10.07s-1.59-7.56-4.19-10.16C176.33,78.12,174.68,81.7,174.65,85.66z
	 M202.4,86.43c-0.15,3.68,1.11,7.41,3.82,10.31c2.71,2.89,6.35,4.38,10.01,4.45c0.17-3.66-1.09-7.38-3.8-10.28
	C209.73,88.02,206.08,86.52,202.4,86.43z M154.68,58.77c3.66,0.05,7.35-1.32,10.15-4.13c2.8-2.8,4.18-6.49,4.16-10.18
	c-3.68-0.03-7.37,1.35-10.18,4.16C156,51.42,154.63,55.11,154.68,58.77z M196.7,17.62c-0.86-3.58-3.08-6.83-6.48-8.88
	c-3.39-2.05-7.3-2.49-10.84-1.57c0.83,3.57,3.05,6.81,6.44,8.86C189.22,18.07,193.13,18.53,196.7,17.62z M189.64,83.24
	c-1.5,3.36-1.71,7.3-0.27,10.99c1.45,3.69,4.27,6.42,7.65,7.85c1.51-3.34,1.73-7.26,0.28-10.95
	C195.86,87.43,193.03,84.69,189.64,83.24z M164.57,30.21c-3.87,0.85-7.01,3.21-8.95,6.33c3.06,2.01,6.9,2.84,10.77,1.99
	c3.87-0.85,7.02-3.22,8.98-6.33C172.29,30.19,168.44,29.36,164.57,30.21z M175.33,17.01c-3.91-0.64-7.7,0.39-10.65,2.56
	c2.1,3.01,5.36,5.2,9.27,5.84c3.91,0.64,7.72-0.38,10.69-2.55C182.52,19.85,179.24,17.65,175.33,17.01z M207.12,6.57
	c-2.39-3.16-5.85-5.02-9.49-5.48c-0.55,3.62,0.31,7.46,2.7,10.62c2.39,3.16,5.86,5.03,9.51,5.51
	C210.38,13.57,209.51,9.73,207.12,6.57z M226.42,85.1c-3.59-1.68-7.53-1.73-10.98-0.44c1.23,3.47,3.78,6.47,7.37,8.16
	c3.59,1.68,7.52,1.72,10.95,0.43C232.55,89.78,230.01,86.78,226.42,85.1z M81,85.79L88.04,103l2.87-1.17l-7.04-17.21L81,85.79z
	 M243.96,45.56c-3.03,2.56-4.72,6.12-5,9.79c3.67,0.34,7.46-0.72,10.49-3.28c3.03-2.56,4.71-6.11,4.97-9.76
	C250.78,41.95,246.99,43.01,243.96,45.56z M243.39,60.69c-3.76,1.25-6.65,3.93-8.27,7.24c3.28,1.68,7.2,2.09,10.96,0.84
	c3.76-1.25,6.64-3.93,8.24-7.23C251.05,59.86,247.15,59.44,243.39,60.69z M237.25,74.53c-3.96-0.23-7.63,1.19-10.37,3.66
	c2.42,2.77,5.91,4.61,9.87,4.84c3.96,0.23,7.62-1.19,10.33-3.66C244.68,76.6,241.21,74.76,237.25,74.53z M108.68,84.19l17.23,6.99
	l1.17-2.87l-17.23-6.99L108.68,84.19z M114.55,80.61l18.24,3.57l0.6-3.04l-18.24-3.57L114.55,80.61z M102.2,86.6l15.55,10.18
	l1.7-2.59l-15.55-10.18L102.2,86.6z M119.66,75.99l18.59,0l0-3.1h-18.59L119.66,75.99z M95.28,87.72l13.24,13.05l2.18-2.21
	L97.46,85.52L95.28,87.72z M88.09,87.47l10.35,15.44l2.58-1.72L90.66,85.74L88.09,87.47z M130.65,49.33l2.19,2.19l9.86-9.86
	l-2.19-2.19L130.65,49.33z M154.68,112.74c3.66,0.05,7.35-1.32,10.15-4.13c2.8-2.8,4.18-6.49,4.16-10.18
	c-3.68-0.03-7.37,1.35-10.18,4.16C156,105.4,154.63,109.08,154.68,112.74z M154.68,130.73c3.66,0.05,7.35-1.32,10.15-4.13
	c2.8-2.8,4.18-6.49,4.16-10.18c-3.68-0.03-7.37,1.35-10.18,4.16C156,123.39,154.63,127.07,154.68,130.73z M154.68,76.76
	c3.66,0.05,7.35-1.32,10.15-4.13c2.8-2.8,4.18-6.49,4.16-10.18c-3.68-0.03-7.37,1.35-10.18,4.16C156,69.42,154.63,73.1,154.68,76.76
	z M154.68,94.75c3.66,0.05,7.35-1.32,10.15-4.13c2.8-2.8,4.18-6.49,4.16-10.18c-3.68-0.03-7.37,1.35-10.18,4.16
	C156,87.41,154.63,91.09,154.68,94.75z M358.65,84.55c-3.64,0-6.59,2.95-6.59,6.59c0,3.64,2.95,6.59,6.59,6.59s6.59-2.95,6.59-6.59
	C365.24,87.5,362.29,84.55,358.65,84.55z M339.82,81.58c-3.64,0-6.59,2.95-6.59,6.59c0,3.64,2.95,6.59,6.59,6.59
	s6.59-2.95,6.59-6.59C346.41,84.53,343.46,81.58,339.82,81.58z M320.39,87.91c-3.64,0-6.59,2.95-6.59,6.59
	c0,3.64,2.95,6.59,6.59,6.59s6.59-2.95,6.59-6.59C326.98,90.86,324.03,87.91,320.39,87.91z M300.22,84.55
	c-3.64,0-6.59,2.95-6.59,6.59c0,3.64,2.95,6.59,6.59,6.59s6.59-2.95,6.59-6.59C306.81,87.5,303.86,84.55,300.22,84.55z
	 M283.89,72.26c-3.64,0-6.59,2.95-6.59,6.59c0,3.64,2.95,6.59,6.59,6.59s6.59-2.95,6.59-6.59
	C290.48,75.21,287.53,72.26,283.89,72.26z M281.67,60.41c0-3.64-2.95-6.59-6.59-6.59s-6.59,2.95-6.59,6.59
	c0,3.64,2.95,6.59,6.59,6.59S281.67,64.05,281.67,60.41z M275.78,46.57c3.64,0,6.59-2.95,6.59-6.59c0-3.64-2.95-6.59-6.59-6.59
	s-6.59,2.95-6.59,6.59C269.19,43.61,272.14,46.57,275.78,46.57z M285.84,15.59c-3.64,0-6.59,2.95-6.59,6.59
	c0,3.64,2.95,6.59,6.59,6.59s6.59-2.95,6.59-6.59C292.43,18.54,289.48,15.59,285.84,15.59z M302.97,4.44
	c-3.64,0-6.59,2.95-6.59,6.59c0,3.64,2.95,6.59,6.59,6.59s6.59-2.95,6.59-6.59C309.56,7.39,306.61,4.44,302.97,4.44z M323.32,2.47
	c-3.64,0-6.59,2.95-6.59,6.59c0,3.64,2.95,6.59,6.59,6.59s6.59-2.95,6.59-6.59C329.91,5.42,326.96,2.47,323.32,2.47z M342.27,10.12
	c-3.64,0-6.59,2.95-6.59,6.59c0,3.64,2.95,6.59,6.59,6.59s6.59-2.95,6.59-6.59C348.87,13.07,345.91,10.12,342.27,10.12z
	 M362.15,32.24c0-3.64-2.95-6.59-6.59-6.59s-6.59,2.95-6.59,6.59c0,3.64,2.95,6.59,6.59,6.59S362.15,35.88,362.15,32.24z
	 M352.06,51.88c0,3.64,2.95,6.59,6.59,6.59s6.59-2.95,6.59-6.59c0-3.64-2.95-6.59-6.59-6.59S352.06,48.24,352.06,51.88z
	 M358.65,64.92c-3.64,0-6.59,2.95-6.59,6.59c0,3.64,2.95,6.59,6.59,6.59s6.59-2.95,6.59-6.59
	C365.24,67.87,362.29,64.92,358.65,64.92z"/>
</svg>
